<svg width="48" height="48" viewBox="0 0 48 48" fill="none" xmlns="http://www.w3.org/2000/svg">
<path d="M48 24C48 37.2548 37.2548 48 24 48C10.7452 48 0 37.2548 0 24C0 10.7452 10.7452 0 24 0C37.2548 0 48 10.7452 48 24ZM0.960001 24C0.960001 36.7246 11.2754 47.04 24 47.04C36.7246 47.04 47.04 36.7246 47.04 24C47.04 11.2754 36.7246 0.960001 24 0.960001C11.2754 0.960001 0.960001 11.2754 0.960001 24Z" fill="#282A33"/>
<path d="M48 24C48 37.2548 37.2548 48 24 48C10.7452 48 0 37.2548 0 24C0 10.7452 10.7452 0 24 0C37.2548 0 48 10.7452 48 24ZM0.960001 24C0.960001 36.7246 11.2754 47.04 24 47.04C36.7246 47.04 47.04 36.7246 47.04 24C47.04 11.2754 36.7246 0.960001 24 0.960001C11.2754 0.960001 0.960001 11.2754 0.960001 24Z" fill="#D2233C"/>
<path d="M24 36V12.3678" stroke="#282A33" stroke-width="2"/>
<path d="M15 21.2874L24 12L33 21.2874" stroke="#282A33" stroke-width="1.9"/>
</svg>
