<?xml version="1.0" encoding="UTF-8"?>
<!DOCTYPE svg PUBLIC "-//W3C//DTD SVG 1.1//EN" "http://www.w3.org/Graphics/SVG/1.1/DTD/svg11.dtd">
<svg xmlns="http://www.w3.org/2000/svg" xmlns:xlink="http://www.w3.org/1999/xlink">
	<defs>
		<linearGradient id="content_vector-a" x1="1165.36" x2="4.256" y1="159.209" y2="160.007" gradientUnits="userSpaceOnUse">
			<stop stop-color="#FCDED1" stop-opacity=".3"/>
			<stop offset=".217" stop-color="#FCDED1" stop-opacity="0"/>
			<stop offset=".722" stop-color="#FCDED1" stop-opacity="0"/>
			<stop offset=".991" stop-color="#FCDED1" stop-opacity=".5"/>
		</linearGradient>

		<linearGradient id="content_vector_under-a" x1="-10.357" x2="1150.74" y1="203.791" y2="202.993" gradientUnits="userSpaceOnUse">
			<stop offset=".083" stop-color="#FCDED1" stop-opacity="0"/>
			<stop offset=".323" stop-color="#FCDED1" stop-opacity=".6"/>
			<stop offset=".714" stop-color="#FCDED1" stop-opacity="0"/>
			<stop offset=".911" stop-color="#FCDED1" stop-opacity=".2"/>
		</linearGradient>

		<radialGradient id="exp_item_1-a" cx="0" cy="0" r="1" gradientTransform="rotate(135 12.76 10.633) scale(15.1875)" gradientUnits="userSpaceOnUse">
			<stop stop-color="#77C9FB"/>
			<stop offset="1" stop-color="#4EBFF3"/>
		</radialGradient>
		<radialGradient id="exp_item_1-b" cx="0" cy="0" r="1" gradientTransform="rotate(135 8.26 8.77) scale(15.1875)" gradientUnits="userSpaceOnUse">
			<stop stop-color="#FFE975"/>
			<stop offset="1" stop-color="#FFCF41"/>
		</radialGradient>
		<radialGradient id="exp_item_1-c" cx="0" cy="0" r="1" gradientTransform="rotate(135 3.76 6.906) scale(15.1875)" gradientUnits="userSpaceOnUse">
			<stop stop-color="#AEA9FE"/>
			<stop offset="1" stop-color="#938DF8"/>
		</radialGradient>

		<radialGradient id="exp_item_2-a" cx="0" cy="0" r="1" gradientTransform="rotate(135 8.264 8.762) scale(15.1875)" gradientUnits="userSpaceOnUse">
			<stop stop-color="#FE73A5"/>
			<stop offset="1" stop-color="#EF5389"/>
		</radialGradient>
		<radialGradient id="exp_item_2-b" cx="0" cy="0" r="1" gradientTransform="rotate(135 3.764 6.898) scale(15.1875)" gradientUnits="userSpaceOnUse">
			<stop stop-color="#77C9FB"/>
			<stop offset="1" stop-color="#4EBFF3"/>
		</radialGradient>

		<radialGradient id="exp_item_3-a" cx="0" cy="0" r="1" gradientTransform="rotate(135 7.758 8.57) scale(15.1875)" gradientUnits="userSpaceOnUse">
			<stop stop-color="#77C9FB"/>
			<stop offset="1" stop-color="#4EBFF3"/>
		</radialGradient>
		<radialGradient id="exp_item_3-b" cx="0" cy="0" r="1" gradientTransform="rotate(135 3.758 6.913) scale(15.1875)" gradientUnits="userSpaceOnUse">
			<stop stop-color="#FFBB87"/>
			<stop offset="1" stop-color="#FFA35C"/>
		</radialGradient>

		<radialGradient id="exp_item_4-a" cx="0" cy="0" r="1" gradientTransform="rotate(135 3.758 6.913) scale(15.1875)" gradientUnits="userSpaceOnUse">
			<stop stop-color="#FFBB87"/>
			<stop offset="1" stop-color="#FFA45E"/>
		</radialGradient>

		<radialGradient id="exp_item_5-a" cx="0" cy="0" r="1" gradientTransform="rotate(135 3.758 6.913) scale(15.1875)" gradientUnits="userSpaceOnUse">
			<stop stop-color="#64DDBA"/>
			<stop offset="1" stop-color="#3FC59D"/>
		</radialGradient>

		<linearGradient id="nav_active-a" x1="175.577" x2="-862.693" y1="-393.879" y2="645.723" gradientUnits="userSpaceOnUse">
			<stop offset=".254" stop-color="#FCDED1" stop-opacity="0"/>
			<stop offset=".302" stop-color="#FCDED1"/>
			<stop offset=".341" stop-color="#FCDED1" stop-opacity="0"/>
		</linearGradient>
	</defs>
<symbol id="content_vector" viewBox="0 0 1155 363">
	<path fill="url(#content_vector-a)" d="m477.325 308.87-2.554 9.668 2.554-9.668Zm467.118 0 5.338 8.455-5.338-8.455ZM9.903 244.833c7.675-4.317 18.983-7.349 33.879-8.855 14.763-1.491 32.328-1.418 52.002-.05 39.35 2.736 86.187 10.578 134.121 20.63 95.895 20.109 194.711 48.731 244.866 61.98l5.108-19.337c-49.517-13.08-149.301-41.967-245.869-62.217-48.298-10.129-96.158-18.179-136.838-21.008-20.34-1.414-39.124-1.541-55.401.104-16.144 1.631-30.567 5.074-41.674 11.322l9.806 17.431Zm464.868 73.705c49.897 13.181 133.93 34.517 222.454 41.87 88.164 7.323 182.777.973 252.556-43.083l-10.677-16.911c-64.108 40.475-153.219 47.29-240.224 40.063-86.645-7.198-169.227-28.127-219.001-41.276l-5.108 19.337Zm475.01-1.213c69.299-43.75 120.449-122.236 154.069-188.568 16.9-33.345 29.56-63.996 37.99-86.316a755.998 755.998 0 0 0 9.52-26.586c1.06-3.163 1.85-5.633 2.39-7.324.27-.845.47-1.496.61-1.94.07-.223.12-.394.16-.512.01-.06.03-.105.04-.138 0-.016.01-.029.01-.038V5.89c0-.004.01-.007-9.57-2.891s-9.57-2.885-9.57-2.886c0 .001 0 .002-.01.004v.021a.508.508 0 0 0-.03.104c-.03.095-.08.243-.14.442-.12.398-.31 1-.56 1.797-.51 1.592-1.27 3.96-2.3 7.015-2.05 6.11-5.13 14.967-9.25 25.872-8.25 21.823-20.63 51.79-37.13 84.346-33.19 65.47-82.31 139.919-146.906 180.699l10.677 16.911Z"/>

</symbol>
<symbol id="content_vector_under" viewBox="0 0 1155 363">
	<path fill="url(#content_vector_under-a)" d="M1145.1 118.167c-7.68 4.317-18.99 7.349-33.88 8.855-14.76 1.491-32.33 1.418-52 .05-39.35-2.736-86.191-10.578-134.125-20.63-95.895-20.11-194.711-48.731-244.866-61.98l-5.108 19.337c49.517 13.08 149.301 41.967 245.869 62.217 48.298 10.129 96.16 18.179 136.84 21.008 20.34 1.414 39.12 1.541 55.4-.104 16.14-1.631 30.57-5.074 41.67-11.322l-9.8-17.431ZM680.229 44.462C630.332 31.28 546.299 9.945 457.775 2.592c-88.164-7.323-182.777-.973-252.556 43.083l10.677 16.911c64.108-40.475 153.219-47.29 240.224-40.063C542.765 29.721 625.347 50.65 675.121 63.8l5.108-19.337Zm-475.01 1.212C135.923 89.425 84.773 167.911 51.151 234.243c-16.901 33.345-29.56 63.996-37.996 86.316-4.22 11.166-7.39 20.262-9.51 26.586a480.043 480.043 0 0 0-2.395 7.324 261.914 261.914 0 0 0-.808 2.59l-.011.038-.004.012c-.001.004-.002.007 9.573 2.891 9.575 2.884 9.575 2.885 9.575 2.886v-.004l.007-.021.032-.104.135-.442c.123-.398.311-1 .564-1.797.506-1.592 1.27-3.96 2.295-7.015 2.048-6.111 5.133-14.967 9.255-25.872 8.248-21.823 20.626-51.789 37.128-84.346 33.185-65.47 82.314-139.919 146.905-180.699l-10.677-16.911Z"/>

</symbol>
<symbol id="exp_item_1" viewBox="0 0 35 17">
	<rect width="12" height="12" x="18" y="8.5" fill="url(#exp_item_1-a)" rx="2" transform="rotate(-45 18 8.5)"/>
	<rect width="12" height="12" x="9" y="8.5" fill="url(#exp_item_1-b)" rx="2" transform="rotate(-45 9 8.5)"/>
	<rect width="12" height="12" y="8.5" fill="url(#exp_item_1-c)" rx="2" transform="rotate(-45 0 8.5)"/>

</symbol>
<symbol id="exp_item_2" viewBox="0 0 26 17">
	<rect width="12" height="12" x="9" y="8.485" fill="url(#exp_item_2-a)" rx="2" transform="rotate(-45 9 8.485)"/>
	<rect width="12" height="12" y="8.485" fill="url(#exp_item_2-b)" rx="2" transform="rotate(-45 0 8.485)"/>

</symbol>
<symbol id="exp_item_3" viewBox="0 0 25 17">
	<rect width="12" height="12" x="8" y="8.515" fill="url(#exp_item_3-a)" rx="2" transform="rotate(-45 8 8.515)"/>
	<rect width="12" height="12" y="8.515" fill="url(#exp_item_3-b)" rx="2" transform="rotate(-45 0 8.515)"/>

</symbol>
<symbol id="exp_item_4" viewBox="0 0 17 17">
	<rect width="12" height="12" y="8.515" fill="url(#exp_item_4-a)" rx="2" transform="rotate(-45 0 8.515)"/>

</symbol>
<symbol id="exp_item_5" viewBox="0 0 17 17">
	<rect width="12" height="12" y="8.515" fill="url(#exp_item_5-a)" rx="2" transform="rotate(-45 0 8.515)"/>

</symbol>
<symbol id="fb" viewBox="0 0 25 25">
	<rect width="25" height="25" fill="#282A33" rx="5"/>
	<path fill="#fff" d="m17.862 15.86.57-3.717h-3.566v-2.41c0-1.018.497-2.01 2.094-2.01h1.622V4.56s-1.471-.251-2.877-.251c-2.938 0-4.857 1.78-4.857 5.002v2.833H7.583v3.716h3.265v8.985a12.93 12.93 0 0 0 2.009.156c.683 0 1.354-.053 2.009-.156V15.86h2.996Z"/>
</symbol>
<symbol id="nav_active" viewBox="0 0 104 156">
	<path fill="url(#nav_active-a)" d="M5.343 155.721C68.011 140.614 98.89 72.889 103.975 1.712L84.025.287C79.11 69.111 49.988 124.386.656 136.278l4.687 19.443Z"/>

</symbol>
<symbol id="scroll_top" viewBox="0 0 48 48">
	<path fill="#282A33" d="M48 24c0 13.255-10.745 24-24 24S0 37.255 0 24 10.745 0 24 0s24 10.745 24 24ZM.96 24C.96 36.725 11.275 47.04 24 47.04S47.04 36.725 47.04 24 36.725.96 24 .96.96 11.275.96 24Z"/>
	<path fill="#D2233C" d="M48 24c0 13.255-10.745 24-24 24S0 37.255 0 24 10.745 0 24 0s24 10.745 24 24ZM.96 24C.96 36.725 11.275 47.04 24 47.04S47.04 36.725 47.04 24 36.725.96 24 .96.96 11.275.96 24Z"/>
	<path stroke="#282A33" stroke-width="2" d="M24 36V12.368"/>
	<path stroke="#282A33" stroke-width="1.9" d="M15 21.287 24 12l9 9.287"/>
</symbol>
<symbol id="tg" viewBox="0 0 25 25">
	<rect width="25" height="25" fill="#282A33" rx="5"/>
	<path fill="#fff" d="M5.222 12.088c1.503-.827 3.18-1.518 4.748-2.213 2.697-1.137 5.405-2.255 8.14-3.296.532-.177 1.488-.35 1.582.438-.052 1.116-.263 2.226-.408 3.335-.367 2.44-.792 4.873-1.207 7.305-.143.81-1.157 1.23-1.807.711-1.56-1.054-3.133-2.098-4.674-3.177-.505-.513-.037-1.249.414-1.615 1.286-1.267 2.649-2.343 3.867-3.675.329-.794-.642-.125-.963.08-1.76 1.212-3.476 2.5-5.331 3.565-.948.522-2.052.076-3-.215-.849-.352-2.094-.706-1.361-1.242Z"/>
</symbol>
<symbol id="vk" viewBox="0 0 25 25">
	<rect width="25" height="25" fill="#282A33" rx="5"/>
	<path fill="#fff" fill-rule="evenodd" d="M20.119 8.532c.12-.38 0-.658-.533-.658h-1.769c-.446 0-.652.243-.772.502 0 0-.91 2.216-2.181 3.653-.412.415-.601.554-.824.554-.12 0-.275-.139-.275-.52V8.516c0-.45-.138-.658-.515-.658h-2.782a.428.428 0 0 0-.447.416c0 .432.636.536.704 1.748v2.631c0 .571-.103.675-.326.675-.601 0-2.06-2.233-2.936-4.777-.172-.502-.344-.693-.79-.693H4.887c-.515 0-.601.243-.601.502 0 .468.6 2.822 2.799 5.938 1.46 2.129 3.537 3.271 5.41 3.271 1.132 0 1.27-.26 1.27-.692v-1.61c0-.52.103-.606.463-.606.258 0 .722.139 1.77 1.16 1.201 1.212 1.407 1.766 2.077 1.766h1.769c.515 0 .755-.26.618-.762-.155-.502-.738-1.229-1.494-2.095-.412-.484-1.03-1.02-1.22-1.28-.257-.347-.188-.485 0-.797-.016 0 2.147-3.081 2.37-4.12Z" clip-rule="evenodd"/>
</symbol>
</svg>